# xmcd CD database file
#
# Track frame offsets:
#	150
#	11468
#	25922
#	40828
#	54473
#	59771
#	61951
#	81303
#	86316
#	104903
#	119733
#	139525
#	151067
#	167573
#	173422
#	192105
#	194703
#	212270
#	221311
#	237047
#	248605
#	262842
#
# Disc length: 3709 seconds
#
# Revision: 0
# Processed by: cddbd v1.5.2PL0 Copyright (c) Steve Scherf et al.
# Submitted via: CDex 1.79
#
DISCID=220e7b16
DTITLE=Duke Ellington - Treasury Shows 13
DYEAR=2008
DGENRE=Jazz
TTITLE0=Someone
TTITLE1=Riff Staccato (Vocal Ray Nance)
TTITLE2=Homesick That's All
TTITLE3=Kissing Bug (Vocal Joy Sherrill)
TTITLE4=(Theme) Take The A Train "Into Station Break"
TTITLE5=(Theme) Take The A Train "And Broadcast Return"
TTITLE6=Time's A Wastin'
TTITLE7=De Bond Promo
TTITLE8=Three Cent Stomp
TTITLE9=There's No You (Vocal Kay Davis)
TTITLE10=Fancy Dan
TTITLE11=Everything But You
TTITLE12=Fickle Fling
TTITLE13=De Bond Promo
TTITLE14=Blue Serge
TTITLE15=Take The A Train
TTITLE16=Stompy Jones
TTITLE17=Walkin' With My Honey
TTITLE18=Lilly Belle
TTITLE19=Everything But You
TTITLE20=In A Mellotone
TTITLE21=Solid Old Man
EXTD=YEAR: 2008
EXTT0=
EXTT1=
EXTT2=
EXTT3=
EXTT4=
EXTT5=
EXTT6=
EXTT7=
EXTT8=
EXTT9=
EXTT10=
EXTT11=
EXTT12=
EXTT13=
EXTT14=
EXTT15=
EXTT16=
EXTT17=
EXTT18=
EXTT19=
EXTT20=
EXTT21=
PLAYORDER=
